<?xml version="1.0" encoding="utf-8"?>
<svg viewBox="0 0 500 500" xmlns="http://www.w3.org/2000/svg">
  <g transform="matrix(1, 0, 0, 1, -98.64798, -42.784027)">
    <rect x="160.664" y="180.536" width="376.035" height="121.889" style="stroke: rgb(0, 0, 0); fill: rgb(255, 255, 255);"/>
    <rect x="183.945" y="304.531" width="330.38" height="100.126" style="stroke: rgb(0, 0, 0); fill: rgb(255, 255, 255);"/>
    <path d="M 516.64 402.179 L 516.64 308.413 L 540.085 308.413 L 540.085 175.573 L 157.205 175.573 L 157.205 308.413 L 180.646 308.413 L 180.646 402.183 L 153.298 402.183 L 153.298 409.995 L 543.998 409.995 L 543.998 402.183 L 516.64 402.179 Z M 165.02 300.599 L 165.02 183.389 L 532.27 183.389 L 532.27 300.599 L 165.02 300.599 Z M 344.74 402.179 L 211.9 402.179 L 211.9 394.363 L 344.74 394.363 L 344.74 402.179 Z M 344.74 386.55 L 211.9 386.55 L 211.9 378.737 L 344.74 378.737 L 344.74 386.55 Z M 344.74 370.921 L 211.9 370.921 L 211.9 363.108 L 344.74 363.108 L 344.74 370.921 Z M 344.74 355.292 L 211.9 355.292 L 211.9 347.479 L 344.74 347.479 L 344.74 355.292 Z M 344.74 339.663 L 211.9 339.663 L 211.9 331.85 L 344.74 331.85 L 344.74 339.663 Z M 461.95 402.179 L 430.692 402.179 L 430.692 331.847 L 461.95 331.847 L 461.95 402.179 Z M 485.391 402.179 L 469.762 402.179 L 469.762 331.847 L 485.391 331.847 L 485.391 402.179 Z M 508.829 402.179 L 493.204 402.179 L 493.204 324.038 L 422.88 324.038 L 422.88 402.183 L 352.556 402.179 L 352.556 324.038 L 204.096 324.038 L 204.096 402.183 L 188.467 402.183 L 188.467 308.413 L 508.837 308.413 L 508.829 402.179 Z M 188.459 230.269 L 430.689 230.269 L 430.689 199.011 L 188.459 199.011 L 188.459 230.269 Z M 391.619 206.828 L 422.877 206.828 L 422.877 222.453 L 391.619 222.453 L 391.619 206.828 Z M 352.549 206.828 L 383.807 206.828 L 383.807 222.453 L 352.549 222.453 L 352.549 206.828 Z M 313.479 206.828 L 344.737 206.828 L 344.737 222.453 L 313.479 222.453 L 313.479 206.828 Z M 274.409 206.828 L 305.667 206.828 L 305.667 222.453 L 274.409 222.453 L 274.409 206.828 Z M 235.343 206.828 L 266.597 206.828 L 266.597 222.453 L 235.343 222.453 L 235.343 206.828 Z M 196.269 206.828 L 227.531 206.828 L 227.531 222.453 L 196.269 222.453 L 196.269 206.828 Z" style=""/>
  </g>
</svg>