<?xml version="1.0" encoding="UTF-8"?>
<svg width="700pt" height="700pt" version="1.1" viewBox="0 0 700 700" xmlns="http://www.w3.org/2000/svg" xmlns:xlink="http://www.w3.org/1999/xlink">
 <g>
  <path d="m517.99 389.39v-93.766h23.445v-132.84h-382.88v132.84h23.441v93.77h-27.348v7.8125h390.7v-7.8125zm-351.62-101.58v-117.21h367.25v117.21zm179.72 101.58h-132.84v-7.8164h132.84zm0-15.629h-132.84v-7.8125h132.84zm0-15.629h-132.84v-7.8125h132.84zm0-15.629h-132.84v-7.8125h132.84zm0-15.629h-132.84v-7.8125h132.84zm117.21 62.516h-31.258v-70.332h31.258zm23.441 0h-15.629v-70.332h15.629zm23.438 0h-15.625v-78.141h-70.324v78.145l-70.324-0.003907v-78.141h-148.46v78.145h-15.629v-93.77h320.37zm-320.37-171.91h242.23v-31.258h-242.23zm203.16-23.441h31.258v15.625h-31.258zm-39.07 0h31.258v15.625h-31.258zm-39.07 0h31.258v15.625h-31.258zm-39.07 0h31.258v15.625h-31.258zm-39.066 0h31.254v15.625h-31.254zm-39.074 0h31.262v15.625h-31.262z"/>
  </g>
</svg>
